<svg height="400" width="1000">
<svg x="0" y="0">
<rect x="0" y="0" height="400" width="1000"
style="fill:#e8c59c;"/>
</svg>
<text x="420" y="45" style="fill: #f6b483; stroke: #594e52;  font-size: 40px;">Results</text>
<text x="45" y="148" style="fill: #594e52; font-size: 16px;">85</text>
<svg x="0" y="148">
<rect x="10" y="10" height="232" width="90"
rx="20" ry="10"
style="stroke:#594e52;
stroke-width: 3;
fill:#e29676;
background: red;"/>
</svg>
<text x="37" y="385" style="fill: #999999; stroke: #000000;  font-size: 16px;">VH</text>
<text x="145" y="107" style="fill: #594e52; font-size: 16px;">100</text>
<svg x="0" y="107">
<rect x="110" y="10" height="273" width="90"
rx="20" ry="10"
style="stroke:#594e52;
stroke-width: 3;
fill:#e29676;
background: red;"/>
</svg>
<text x="137" y="385" style="fill: #999999; stroke: #000000;  font-size: 16px;">002</text>
<text x="245" y="80" style="fill: #594e52; font-size: 16px;">110</text>
<svg x="0" y="80">
<rect x="210" y="10" height="300" width="90"
rx="20" ry="10"
style="stroke:#594e52;
stroke-width: 3;
fill:#e29676;
background: red;"/>
</svg>
<text x="237" y="385" style="fill: #999999; stroke: #000000;  font-size: 16px;">003</text>
<text x="345" y="83" style="fill: #594e52; font-size: 16px;">109</text>
<svg x="0" y="83">
<rect x="310" y="10" height="297" width="90"
rx="20" ry="10"
style="stroke:#594e52;
stroke-width: 3;
fill:#e29676;
background: red;"/>
</svg>
<text x="337" y="385" style="fill: #999999; stroke: #000000;  font-size: 16px;">004</text>
<text x="445" y="186" style="fill: #594e52; font-size: 16px;">71</text>
<svg x="0" y="186">
<rect x="410" y="10" height="194" width="90"
rx="20" ry="10"
style="stroke:#594e52;
stroke-width: 3;
fill:#e29676;
background: red;"/>
</svg>
<text x="437" y="385" style="fill: #999999; stroke: #000000;  font-size: 16px;">009</text>
<text x="545" y="94" style="fill: #594e52; font-size: 16px;">105</text>
<svg x="0" y="94">
<rect x="510" y="10" height="286" width="90"
rx="20" ry="10"
style="stroke:#594e52;
stroke-width: 3;
fill:#e29676;
background: red;"/>
</svg>
<text x="537" y="385" style="fill: #999999; stroke: #000000;  font-size: 16px;">012</text>
<text x="645" y="113" style="fill: #594e52; font-size: 16px;">98</text>
<svg x="0" y="113">
<rect x="610" y="10" height="267" width="90"
rx="20" ry="10"
style="stroke:#594e52;
stroke-width: 3;
fill:#e29676;
background: red;"/>
</svg>
<text x="637" y="385" style="fill: #999999; stroke: #000000;  font-size: 16px;">014</text>
<text x="745" y="102" style="fill: #594e52; font-size: 16px;">102</text>
<svg x="0" y="102">
<rect x="710" y="10" height="278" width="90"
rx="20" ry="10"
style="stroke:#594e52;
stroke-width: 3;
fill:#e29676;
background: red;"/>
</svg>
<text x="737" y="385" style="fill: #999999; stroke: #000000;  font-size: 16px;">015</text>
<text x="845" y="375" style="fill: #594e52; font-size: 16px;">2</text>
<svg x="0" y="375">
<rect x="810" y="10" height="5" width="90"
rx="20" ry="10"
style="stroke:#594e52;
stroke-width: 3;
fill:#e29676;
background: red;"/>
</svg>
<text x="837" y="385" style="fill: #999999; stroke: #000000;  font-size: 16px;">017_1</text>
<text x="945" y="369" style="fill: #594e52; font-size: 16px;">4</text>
<svg x="0" y="369">
<rect x="910" y="10" height="11" width="90"
rx="20" ry="10"
style="stroke:#594e52;
stroke-width: 3;
fill:#e29676;
background: red;"/>
</svg>
<text x="937" y="385" style="fill: #999999; stroke: #000000;  font-size: 16px;">017_2</text>
</svg>
