<svg height="400" width="800">
<svg x="0" y="0">
<rect x="0" y="0" height="400" width="800"
style="fill:#e8c59c;"/>
</svg>
<text x="320" y="45" style="fill: #f6b483; stroke: #594e52;  font-size: 40px;">Results</text>
<text x="45" y="146" style="fill: #594e52; font-size: 16px;">85</text>
<svg x="0" y="146">
<rect x="10" y="10" height="234" width="90"
rx="20" ry="10"
style="stroke:#594e52;
stroke-width: 3;
fill:#e29676;
background: red;"/>
</svg>
<text x="37" y="385" style="fill: #999999; stroke: #000000;  font-size: 16px;">VH</text>
<text x="145" y="108" style="fill: #594e52; font-size: 16px;">99</text>
<svg x="0" y="108">
<rect x="110" y="10" height="272" width="90"
rx="20" ry="10"
style="stroke:#594e52;
stroke-width: 3;
fill:#e29676;
background: red;"/>
</svg>
<text x="137" y="385" style="fill: #999999; stroke: #000000;  font-size: 16px;">002</text>
<text x="245" y="80" style="fill: #594e52; font-size: 16px;">109</text>
<svg x="0" y="80">
<rect x="210" y="10" height="300" width="90"
rx="20" ry="10"
style="stroke:#594e52;
stroke-width: 3;
fill:#e29676;
background: red;"/>
</svg>
<text x="237" y="385" style="fill: #999999; stroke: #000000;  font-size: 16px;">003</text>
<text x="345" y="80" style="fill: #594e52; font-size: 16px;">109</text>
<svg x="0" y="80">
<rect x="310" y="10" height="300" width="90"
rx="20" ry="10"
style="stroke:#594e52;
stroke-width: 3;
fill:#e29676;
background: red;"/>
</svg>
<text x="337" y="385" style="fill: #999999; stroke: #000000;  font-size: 16px;">004</text>
<text x="445" y="185" style="fill: #594e52; font-size: 16px;">71</text>
<svg x="0" y="185">
<rect x="410" y="10" height="195" width="90"
rx="20" ry="10"
style="stroke:#594e52;
stroke-width: 3;
fill:#e29676;
background: red;"/>
</svg>
<text x="437" y="385" style="fill: #999999; stroke: #000000;  font-size: 16px;">009</text>
<text x="545" y="94" style="fill: #594e52; font-size: 16px;">104</text>
<svg x="0" y="94">
<rect x="510" y="10" height="286" width="90"
rx="20" ry="10"
style="stroke:#594e52;
stroke-width: 3;
fill:#e29676;
background: red;"/>
</svg>
<text x="537" y="385" style="fill: #999999; stroke: #000000;  font-size: 16px;">012</text>
<text x="645" y="110" style="fill: #594e52; font-size: 16px;">98</text>
<svg x="0" y="110">
<rect x="610" y="10" height="270" width="90"
rx="20" ry="10"
style="stroke:#594e52;
stroke-width: 3;
fill:#e29676;
background: red;"/>
</svg>
<text x="637" y="385" style="fill: #999999; stroke: #000000;  font-size: 16px;">014</text>
<text x="745" y="99" style="fill: #594e52; font-size: 16px;">102</text>
<svg x="0" y="99">
<rect x="710" y="10" height="281" width="90"
rx="20" ry="10"
style="stroke:#594e52;
stroke-width: 3;
fill:#e29676;
background: red;"/>
</svg>
<text x="737" y="385" style="fill: #999999; stroke: #000000;  font-size: 16px;">015</text>
</svg>
