<svg height="400" width="800">
<svg x="0" y="0">
<rect x="0" y="0" height="400" width="800"
style="fill:#e8c59c;"/>
</svg>
<text x="320" y="45" style="fill: #f6b483; stroke: #594e52;  font-size: 40px;">Results</text>
<text x="45" y="241" style="fill: #594e52; font-size: 16px;">19</text>
<svg x="0" y="241">
<rect x="10" y="10" height="139" width="90"
rx="20" ry="10"
style="stroke:#594e52;
stroke-width: 3;
fill:#e29676;
background: red;"/>
</svg>
<text x="37" y="385" style="fill: #999999; stroke: #000000;  font-size: 16px;">VH</text>
<text x="145" y="343" style="fill: #594e52; font-size: 16px;">5</text>
<svg x="0" y="343">
<rect x="110" y="10" height="37" width="90"
rx="20" ry="10"
style="stroke:#594e52;
stroke-width: 3;
fill:#e29676;
background: red;"/>
</svg>
<text x="137" y="385" style="fill: #999999; stroke: #000000;  font-size: 16px;">002</text>
<text x="245" y="358" style="fill: #594e52; font-size: 16px;">3</text>
<svg x="0" y="358">
<rect x="210" y="10" height="22" width="90"
rx="20" ry="10"
style="stroke:#594e52;
stroke-width: 3;
fill:#e29676;
background: red;"/>
</svg>
<text x="237" y="385" style="fill: #999999; stroke: #000000;  font-size: 16px;">003</text>
<text x="345" y="343" style="fill: #594e52; font-size: 16px;">5</text>
<svg x="0" y="343">
<rect x="310" y="10" height="37" width="90"
rx="20" ry="10"
style="stroke:#594e52;
stroke-width: 3;
fill:#e29676;
background: red;"/>
</svg>
<text x="337" y="385" style="fill: #999999; stroke: #000000;  font-size: 16px;">004</text>
<text x="445" y="80" style="fill: #594e52; font-size: 16px;">41</text>
<svg x="0" y="80">
<rect x="410" y="10" height="300" width="90"
rx="20" ry="10"
style="stroke:#594e52;
stroke-width: 3;
fill:#e29676;
background: red;"/>
</svg>
<text x="437" y="385" style="fill: #999999; stroke: #000000;  font-size: 16px;">009</text>
<text x="545" y="351" style="fill: #594e52; font-size: 16px;">4</text>
<svg x="0" y="351">
<rect x="510" y="10" height="29" width="90"
rx="20" ry="10"
style="stroke:#594e52;
stroke-width: 3;
fill:#e29676;
background: red;"/>
</svg>
<text x="537" y="385" style="fill: #999999; stroke: #000000;  font-size: 16px;">012</text>
<text x="645" y="351" style="fill: #594e52; font-size: 16px;">4</text>
<svg x="0" y="351">
<rect x="610" y="10" height="29" width="90"
rx="20" ry="10"
style="stroke:#594e52;
stroke-width: 3;
fill:#e29676;
background: red;"/>
</svg>
<text x="637" y="385" style="fill: #999999; stroke: #000000;  font-size: 16px;">014</text>
<text x="745" y="351" style="fill: #594e52; font-size: 16px;">4</text>
<svg x="0" y="351">
<rect x="710" y="10" height="29" width="90"
rx="20" ry="10"
style="stroke:#594e52;
stroke-width: 3;
fill:#e29676;
background: red;"/>
</svg>
<text x="737" y="385" style="fill: #999999; stroke: #000000;  font-size: 16px;">015</text>
</svg>
